<?xml version="1.0" ?><!DOCTYPE svg  PUBLIC '-//W3C//DTD SVG 1.1//EN'  'http://www.w3.org/Graphics/SVG/1.1/DTD/svg11.dtd'><svg enable-background="new 0 0 64 64" height="64px" id="Layer_1" version="1.1" viewBox="0 0 64 64" width="64px" xml:space="preserve" xmlns="http://www.w3.org/2000/svg" xmlns:xlink="http://www.w3.org/1999/xlink"><path d="M55.025,0L34.483,64h-9.857l-8.54-23.479h-2.747c-0.577,0-1.13-0.081-1.656-0.244s-0.991-0.427-1.393-0.79  c-0.4-0.364-0.72-0.834-0.959-1.411c-0.238-0.576-0.356-1.279-0.356-2.107v-3.612H22.82c0.827,0,1.523,0.195,2.088,0.583  c0.565,0.39,0.947,0.873,1.147,1.449l2.183,8.691c0.426,1.204,0.766,2.427,1.016,3.668c0.251,1.242,0.451,2.503,0.603,3.782  c0.175-0.979,0.375-1.963,0.602-2.953c0.226-0.991,0.488-2.014,0.791-3.066L44.191,2.032c0.201-0.578,0.574-1.06,1.127-1.449  C45.869,0.194,46.525,0,47.275,0H55.025z"/></svg>